<svg width="100" height="102" viewBox="0 0 100 102" fill="none" xmlns="http://www.w3.org/2000/svg">
<ellipse cx="50" cy="51" rx="50" ry="51" fill="#FF717F"/>
<path d="M62.656 69.9351L70.2293 62.5268L68.56 60.8655L62.656 66.6496L60.1093 64.0662L58.4373 65.7408L62.656 69.9351ZM34.3867 40.5352H62.2853V37.8856H34.384L34.3867 40.5352ZM64.3333 76C61.3627 76 58.8427 74.9711 56.7733 72.9132C54.7022 70.8571 53.6667 68.3533 53.6667 65.4016C53.6667 62.45 54.7022 59.9452 56.7733 57.8874C58.8444 55.8295 61.3644 54.8015 64.3333 54.8033C67.3022 54.805 69.8231 55.8331 71.896 57.8874C73.9689 59.9417 75.0035 62.4465 75 65.4016C75 68.3515 73.9653 70.8554 71.896 72.9132C69.8231 74.9711 67.3022 76 64.3333 76ZM27 72.431V32.2817C27 31.0947 27.4196 30.0843 28.2587 29.2506C29.0978 28.4169 30.1147 28 31.3093 28H65.36C66.5511 28 67.5671 28.4169 68.408 29.2506C69.2471 30.0843 69.6667 31.0947 69.6667 32.2817V48.0309C69.2329 47.8719 68.8027 47.7359 68.376 47.6229C67.9475 47.5098 67.4889 47.4215 67 47.3579V32.2817C67 31.8737 66.8293 31.4992 66.488 31.1583C66.1467 30.8174 65.7698 30.6478 65.3573 30.6496H31.3093C30.8987 30.6496 30.5218 30.8192 30.1787 31.1583C29.8356 31.4975 29.6649 31.8719 29.6667 32.2817V67.8764H46.584C46.7049 68.6006 46.8613 69.3089 47.0533 70.0013C47.2471 70.6938 47.5164 71.3544 47.8613 71.9832L47.7707 72.0733L44.744 69.8847L41.1547 72.431L37.5653 69.8847L33.976 72.431L30.384 69.8847L27 72.431ZM34.3867 60.5078H46.944C47.0436 60.0221 47.1662 59.5672 47.312 59.1433C47.4578 58.7194 47.6284 58.291 47.824 57.8582H34.3867V60.5078ZM34.3867 50.5215H53.88C54.7511 49.8379 55.6844 49.2683 56.68 48.8125C57.6755 48.355 58.7395 48.0415 59.872 47.8719H34.384L34.3867 50.5215Z" fill="white"/>
</svg>
