<svg width="100" height="102" viewBox="0 0 100 102" fill="none" xmlns="http://www.w3.org/2000/svg">
<ellipse cx="50" cy="51" rx="50" ry="51" fill="#FFB63C"/>
<path d="M30 71.4H70V76.5H30V71.4ZM72.5 33.15C71.837 33.15 71.2011 33.4187 70.7322 33.8969C70.2634 34.3751 70 35.0237 70 35.7C70.0004 35.99 70.0547 36.2772 70.16 36.5466C70.263 36.8071 70.4037 37.0504 70.5775 37.2682L65.2775 41.5828L59.985 45.9L55.6 38.0638L51.22 30.2302C51.5954 30.0122 51.9123 29.703 52.1425 29.3301C52.3765 28.9458 52.5004 28.5024 52.5 28.05C52.5 27.3737 52.2366 26.7251 51.7678 26.2469C51.2989 25.7687 50.663 25.5 50 25.5C49.337 25.5 48.7011 25.7687 48.2322 26.2469C47.7634 26.7251 47.5 27.3737 47.5 28.05C47.4997 28.5024 47.6235 28.9458 47.8575 29.3301C48.0877 29.703 48.4046 30.0122 48.78 30.2302L44.3925 38.0638L40.005 45.9L34.715 41.5854L29.4225 37.2682C29.5963 37.0504 29.737 36.8071 29.84 36.5466C29.9453 36.2772 29.9996 35.99 30 35.7C30 35.1957 29.8534 34.7026 29.5787 34.2833C29.304 33.864 28.9135 33.5371 28.4567 33.3441C27.9999 33.1511 27.4972 33.1006 27.0123 33.199C26.5273 33.2974 26.0819 33.5403 25.7322 33.8969C25.3826 34.2535 25.1445 34.7079 25.048 35.2025C24.9516 35.6972 25.0011 36.2099 25.1903 36.6758C25.3795 37.1418 25.7 37.54 26.1111 37.8202C26.5222 38.1004 27.0055 38.25 27.5 38.25C27.5347 38.2477 27.569 38.2417 27.6025 38.2322C27.6357 38.22 27.67 38.2114 27.705 38.2066L28.8525 52.2546L30 66.3H70L71.1475 52.2546L72.295 38.2066C72.3291 38.2116 72.3626 38.2202 72.395 38.2322C72.4293 38.2419 72.4645 38.2479 72.5 38.25C73.163 38.25 73.7989 37.9813 74.2678 37.5031C74.7366 37.0249 75 36.3763 75 35.7C75 35.0237 74.7366 34.3751 74.2678 33.8969C73.7989 33.4187 73.163 33.15 72.5 33.15Z" fill="white"/>
</svg>
