<svg width="100" height="104" viewBox="0 0 100 104" fill="none" xmlns="http://www.w3.org/2000/svg">
<ellipse cx="50" cy="52" rx="50" ry="52" fill="#6381E3"/>
<path d="M35.4167 71.8337H64.5833C65.6884 71.8337 66.7482 71.3947 67.5296 70.6133C68.311 69.8319 68.75 68.7721 68.75 67.667V44.7503C68.75 44.1978 68.5305 43.6679 68.1398 43.2772C67.7491 42.8865 67.2192 42.667 66.6667 42.667H60.4167V41.0483C60.4167 35.6128 56.4521 30.7462 51.0417 30.2191C49.5935 30.0752 48.1312 30.236 46.7489 30.6912C45.3666 31.1464 44.0949 31.8859 43.0157 32.8622C41.9364 33.8384 41.0734 35.0298 40.4823 36.3597C39.8911 37.6895 39.5849 39.1284 39.5833 40.5837V42.667H33.3333C32.7808 42.667 32.2509 42.8865 31.8602 43.2772C31.4695 43.6679 31.25 44.1978 31.25 44.7503V67.667C31.25 68.7721 31.689 69.8319 32.4704 70.6133C33.2518 71.3947 34.3116 71.8337 35.4167 71.8337ZM60.4167 46.8337V51.0003H56.25V46.8337H60.4167ZM43.75 40.5837C43.75 37.1378 46.5542 34.3337 50 34.3337C53.4458 34.3337 56.25 37.1378 56.25 40.5837V42.667H43.75V40.5837ZM39.5833 46.8337H43.75V51.0003H39.5833V46.8337Z" fill="white"/>
</svg>
