<svg width="100" height="104" viewBox="0 0 100 104" fill="none" xmlns="http://www.w3.org/2000/svg">
<ellipse cx="49.45" cy="51.4275" rx="49.45" ry="51.4275" transform="matrix(0.999932 -0.0116371 0.0107592 0.999942 0 1.15234)" fill="#A199FF"/>
<path d="M50 51.5C47.3478 51.5 44.8043 50.7098 42.9289 49.3033C41.0536 47.8968 40 45.9891 40 44C40 42.0109 41.0536 40.1032 42.9289 38.6967C44.8043 37.2902 47.3478 36.5 50 36.5C52.6522 36.5 55.1957 37.2902 57.0711 38.6967C58.9464 40.1032 60 42.0109 60 44C60 44.9849 59.7413 45.9602 59.2388 46.8701C58.7362 47.7801 57.9997 48.6069 57.0711 49.3033C56.1425 49.9997 55.0401 50.5522 53.8268 50.9291C52.6136 51.306 51.3132 51.5 50 51.5ZM50 23C42.5739 23 35.452 25.2125 30.201 29.1508C24.95 33.089 22 38.4305 22 44C22 59.75 50 83 50 83C50 83 78 59.75 78 44C78 38.4305 75.05 33.089 69.799 29.1508C64.548 25.2125 57.4261 23 50 23Z" fill="white"/>
</svg>
