<svg width="100" height="104" viewBox="0 0 100 104" fill="none" xmlns="http://www.w3.org/2000/svg">
<ellipse cx="50" cy="52" rx="50" ry="52" fill="#73C8FE"/>
<g clip-path="url(#clip0_2747_4111)">
<path d="M32.8751 34.612C32.498 35.362 32.3126 36.2911 31.9418 38.1453L30.6959 44.3745C30.5194 45.2238 30.518 46.1002 30.6919 46.9501C30.8658 47.8 31.2114 48.6054 31.7074 49.3171C32.2034 50.0288 32.8394 50.6318 33.5765 51.0891C34.3137 51.5464 35.1364 51.8485 35.9943 51.9769C36.8523 52.1052 37.7274 52.0571 38.5661 51.8355C39.4048 51.6139 40.1894 51.2234 40.872 50.6881C41.5545 50.1527 42.1206 49.4836 42.5356 48.7218C42.9507 47.9601 43.2058 47.1216 43.2855 46.2578L43.4314 44.8203C43.3524 45.7346 43.465 46.6552 43.762 47.5235C44.059 48.3917 44.5339 49.1885 45.1563 49.8628C45.7786 50.5372 46.5348 51.0743 47.3765 51.4398C48.2182 51.8054 49.1269 51.9913 50.0446 51.9858C50.9622 51.9803 51.8686 51.7834 52.7058 51.4077C53.5431 51.032 54.2927 50.4859 54.9069 49.8041C55.5211 49.1223 55.9863 48.3199 56.2729 47.4481C56.5594 46.5763 56.6609 45.6544 56.5709 44.7411L56.723 46.2578C56.8027 47.1216 57.0579 47.9601 57.4729 48.7218C57.8879 49.4836 58.454 50.1527 59.1366 50.6881C59.8192 51.2234 60.6038 51.6139 61.4425 51.8355C62.2812 52.0571 63.1563 52.1052 64.0142 51.9769C64.8722 51.8485 65.6949 51.5464 66.432 51.0891C67.1691 50.6318 67.8052 50.0288 68.3012 49.3171C68.7972 48.6054 69.1427 47.8 69.3166 46.9501C69.4905 46.1002 69.4892 45.2238 69.3126 44.3745L68.0668 38.1453C67.6959 36.2911 67.5105 35.3641 67.1334 34.612C66.7405 33.8287 66.1873 33.1368 65.5097 32.5813C64.8321 32.0257 64.0452 31.6188 63.2001 31.387C62.3876 31.1641 61.4418 31.1641 59.5501 31.1641H40.4584C38.5668 31.1641 37.6209 31.1641 36.8084 31.387C35.9634 31.6188 35.1765 32.0257 34.4989 32.5813C33.8212 33.1368 33.268 33.8287 32.8751 34.612ZM63.0647 55.1224C64.6925 55.1265 66.2936 54.7095 67.7126 53.912V56.1641C67.7126 64.0203 67.7126 67.9495 65.2709 70.3891C63.3064 72.3557 60.3793 72.737 55.2126 72.812V65.5391C55.2126 63.5911 55.2126 62.6182 54.7939 61.8932C54.5196 61.4182 54.1251 61.0237 53.6501 60.7495C52.9251 60.3307 51.9522 60.3307 50.0043 60.3307C48.0564 60.3307 47.0834 60.3307 46.3584 60.7495C45.8834 61.0237 45.489 61.4182 45.2147 61.8932C44.7959 62.6182 44.7959 63.5911 44.7959 65.5391V72.812C39.6293 72.737 36.7022 72.3536 34.7376 70.3891C32.2959 67.9495 32.2959 64.0203 32.2959 56.1641V53.912C33.7156 54.7099 35.3175 55.1269 36.9459 55.1224C39.3536 55.1241 41.6716 54.2094 43.4293 52.5641C45.2207 54.2142 47.5687 55.1278 50.0043 55.1224C52.4398 55.1276 54.7878 54.214 56.5793 52.5641C58.337 54.2094 60.6571 55.1241 63.0647 55.1224Z" fill="white"/>
</g>
<defs>
<clipPath id="clip0_2747_4111">
<rect width="50" height="50" fill="white" transform="translate(25 21)"/>
</clipPath>
</defs>
</svg>
